# Blender v2.79 (sub 0) OBJ File: 'museum.blend'
# www.blender.org
mtllib roof-obj.mtl
o Roof_Cylinder.001
v -3.464102 4.000000 -2.000000
v -3.464102 4.000000 2.000000
v -2.000000 4.000000 -7.464102
v -5.464102 4.000000 -5.464101
v -0.000000 4.000000 -4.000000
v -5.464102 4.000000 5.464101
v -2.000001 4.000000 7.464102
v 1.999999 4.000000 7.464102
v 5.464101 4.000000 5.464102
v 7.464102 4.000000 2.000000
v 7.464102 4.000000 -2.000000
v 3.464102 4.000000 -2.000000
v 5.464102 4.000000 -5.464102
v 2.000000 4.000000 -7.464102
v -0.000000 4.000000 4.000000
v 3.464102 4.000000 2.000000
v -3.264102 4.000000 -2.053590
v -3.264102 4.000000 2.053590
v -2.073205 4.000000 -7.190897
v -5.190897 4.000000 -5.390896
v 0.000000 4.000000 -3.600000
v -5.190897 4.000000 5.390896
v -2.073206 4.000000 7.190897
v 2.073205 4.000000 7.190897
v 5.190896 4.000000 5.390897
v 7.264102 4.000000 1.800000
v 7.264102 4.000000 -1.800000
v 3.117692 4.000000 -1.800000
v 5.190897 4.000000 -5.390897
v 2.073205 4.000000 -7.190897
v -0.000000 4.000000 3.600000
v 3.117692 4.000000 1.800000
v -3.464102 4.200000 -2.000000
v -3.464102 4.200000 2.000000
v -2.000000 4.200000 -7.464102
v -5.464102 4.200000 -5.464101
v -0.000000 4.200000 -4.000000
v -5.464102 4.200000 5.464101
v -2.000001 4.200000 7.464102
v 1.999999 4.200000 7.464102
v 5.464101 4.200000 5.464102
v 7.464102 4.200000 2.000000
v 7.464102 4.200000 -2.000000
v 3.464102 4.200000 -2.000000
v 5.464102 4.200000 -5.464102
v 2.000000 4.200000 -7.464102
v -0.000000 4.200000 4.000000
v 3.464102 4.200000 2.000000
v -3.264102 4.200000 -2.053590
v -3.264102 4.200000 2.053590
v -2.073205 4.200000 -7.190897
v -5.190897 4.200000 -5.390896
v 0.000000 4.200000 -3.600000
v -5.190897 4.200000 5.390896
v -2.073206 4.200000 7.190897
v 2.073205 4.200000 7.190897
v 5.190896 4.200000 5.390897
v 7.264102 4.200000 1.800000
v 7.264102 4.200000 -1.800000
v 3.117692 4.200000 -1.800000
v 5.190897 4.200000 -5.390897
v 2.073205 4.200000 -7.190897
v -0.000000 4.200000 3.600000
v 3.117692 4.200000 1.800000
vt 0.000000 0.000000
vt 1.000000 0.000000
vt 1.000000 1.000000
vt 0.000000 1.000000
vt 0.000000 0.000000
vt 1.000000 0.000000
vt 1.000000 1.000000
vt 0.000000 1.000000
vt 0.000000 0.000000
vt 1.000000 0.000000
vt 1.000000 1.000000
vt 0.000000 1.000000
vt 0.000000 0.000000
vt 1.000000 0.000000
vt 1.000000 1.000000
vt 0.000000 1.000000
vt 0.000000 0.000000
vt 1.000000 0.000000
vt 1.000000 1.000000
vt 0.000000 1.000000
vt 0.000000 0.000000
vt 1.000000 0.000000
vt 1.000000 1.000000
vt 0.000000 1.000000
vt 0.000000 0.000000
vt 1.000000 0.000000
vt 1.000000 1.000000
vt 0.000000 1.000000
vt 0.000000 0.000000
vt 1.000000 0.000000
vt 1.000000 1.000000
vt 0.000000 1.000000
vt 0.000000 0.000000
vt 1.000000 0.000000
vt 1.000000 1.000000
vt 0.000000 1.000000
vt 0.000000 0.000000
vt 1.000000 0.000000
vt 1.000000 1.000000
vt 0.000000 1.000000
vt 0.500000 1.000000
vt 0.691342 0.961940
vt 0.853553 0.853553
vt 0.961940 0.691342
vt 1.000000 0.500000
vt 0.961940 0.308658
vt 0.853553 0.146447
vt 0.691342 0.038060
vt 0.500000 0.000000
vt 0.308658 0.038060
vt 0.146447 0.146446
vt 0.038060 0.308658
vt 0.000000 0.500000
vt 0.038060 0.691342
vt 0.146447 0.853554
vt 0.308659 0.961940
vt 0.000000 0.000000
vt 1.000000 0.000000
vt 1.000000 1.000000
vt 0.000000 1.000000
vt 0.000000 0.000000
vt 1.000000 0.000000
vt 1.000000 1.000000
vt 0.000000 1.000000
vt 0.000000 0.000000
vt 1.000000 0.000000
vt 1.000000 1.000000
vt 0.000000 1.000000
vt 0.000000 0.000000
vt 1.000000 0.000000
vt 1.000000 1.000000
vt 0.000000 1.000000
vt 0.000000 0.000000
vt 1.000000 0.000000
vt 1.000000 1.000000
vt 0.000000 1.000000
vt 0.000000 0.000000
vt 1.000000 0.000000
vt 1.000000 1.000000
vt 0.000000 1.000000
vt 0.000000 0.000000
vt 1.000000 0.000000
vt 0.000000 0.000000
vt 1.000000 0.000000
vt 0.000000 0.000000
vt 1.000000 0.000000
vt 0.000000 0.000000
vt 1.000000 0.000000
vt 0.000000 0.000000
vt 1.000000 0.000000
vt 0.000000 0.000000
vt 1.000000 0.000000
vt 0.000000 0.000000
vt 1.000000 0.000000
vt 0.000000 0.000000
vt 1.000000 0.000000
vt 0.000000 0.000000
vt 1.000000 0.000000
vt 0.000000 0.000000
vt 1.000000 0.000000
vt 0.000000 0.000000
vt 1.000000 0.000000
vt 0.000000 0.000000
vt 1.000000 0.000000
vt 0.000000 0.000000
vt 1.000000 0.000000
vt 0.000000 0.000000
vt 1.000000 0.000000
vt 0.000000 0.000000
vt 1.000000 0.000000
vt 0.000000 0.000000
vt 1.000000 0.000000
vt 1.000000 1.000000
vt 0.000000 1.000000
vt 1.000000 1.000000
vt 0.000000 1.000000
vt 1.000000 1.000000
vt 0.000000 1.000000
vt 1.000000 1.000000
vt 0.000000 1.000000
vt 1.000000 1.000000
vt 0.500000 1.000000
vt 0.933013 0.750000
vt 0.933013 0.250000
vt 0.500000 0.000000
vt 0.066987 0.250000
vt 0.066987 0.750000
vn 0.8660 0.0000 -0.5000
vn 0.5000 0.0000 0.8660
vn -0.8660 0.0000 0.5000
vn -0.8660 0.0000 -0.5000
vn 0.8660 0.0000 0.5000
vn -0.5000 0.0000 0.8660
vn 0.0000 -1.0000 -0.0000
vn 0.5000 0.0000 -0.8660
vn -0.5000 0.0000 -0.8660
vn 0.0000 0.0000 -1.0000
vn -0.0000 0.0000 1.0000
vn -1.0000 0.0000 0.0000
vn 1.0000 0.0000 0.0000
vn 0.0000 1.0000 0.0000
usemtl None
s off
f 9/1/1 16/2/1 48/3/1 41/4/1
f 8/5/2 9/6/2 41/7/2 40/8/2
f 15/9/3 8/10/3 40/11/3 47/12/3
f 2/13/4 6/14/4 38/15/4 34/16/4
f 7/17/5 15/18/5 47/19/5 39/20/5
f 6/21/6 7/22/6 39/23/6 38/24/6
f 12/25/5 13/26/5 45/27/5 44/28/5
f 4/29/3 1/30/3 33/31/3 36/32/3
f 14/33/4 5/34/4 37/35/4 46/36/4
f 5/37/1 3/38/1 35/39/1 37/40/1
f 1/41/7 4/42/7 3/43/7 5/44/7 14/45/7 13/46/7 12/47/7 11/48/7 10/49/7 16/50/7 9/51/7 8/52/7 15/53/7 7/54/7 6/55/7 2/56/7
f 13/57/8 14/58/8 46/59/8 45/60/8
f 3/61/9 4/62/9 36/63/9 35/64/9
f 11/65/10 12/66/10 44/67/10 43/68/10
f 16/69/11 10/70/11 42/71/11 48/72/11
f 1/73/12 2/74/12 34/75/12 33/76/12
f 10/77/13 11/78/13 43/79/13 42/80/13
f 50/81/14 49/82/14 33/31/14 34/16/14
f 52/83/14 51/84/14 35/39/14 36/32/14
f 51/85/14 53/86/14 37/35/14 35/64/14
f 49/87/14 52/88/14 36/63/14 33/76/14
f 55/89/14 54/90/14 38/15/14 39/20/14
f 54/91/14 50/92/14 34/75/14 38/24/14
f 57/93/14 56/94/14 40/11/14 41/4/14
f 59/95/14 58/96/14 42/71/14 43/68/14
f 60/97/14 59/98/14 43/79/14 44/28/14
f 62/99/14 61/100/14 45/27/14 46/36/14
f 53/101/14 62/102/14 46/59/14 37/40/14
f 61/103/14 60/104/14 44/67/14 45/60/14
f 63/105/14 55/106/14 39/23/14 47/12/14
f 56/107/14 63/108/14 47/19/14 40/8/14
f 64/109/14 57/110/14 41/7/14 48/72/14
f 58/111/14 64/112/14 48/3/14 42/80/14
f 63/105/14 56/94/14 57/113/14 64/114/14
f 63/105/14 50/92/14 54/115/14 55/116/14
f 49/87/14 53/86/14 51/117/14 52/118/14
f 61/103/14 62/102/14 53/119/14 60/120/14
f 58/111/14 59/98/14 60/121/14 64/114/14
f 53/122/14 49/123/14 50/124/14 63/125/14 64/126/14 60/127/14
l 17 18
l 19 20
l 21 19
l 20 17
l 22 23
l 18 22
l 24 25
l 26 27
l 27 28
l 29 30
l 21 30
l 29 28
l 23 31
l 31 24
l 25 32
l 26 32
